<svg width="151" height="24" viewBox="0 0 151 24" fill="none" xmlns="http://www.w3.org/2000/svg">
<path d="M148.45 11.2759C147.147 11.2759 146.095 10.2236 146.095 8.92035C146.095 7.61705 147.147 6.56476 148.45 6.56476C149.754 6.56476 150.806 7.61705 150.806 8.92035C150.816 10.214 149.754 11.2759 148.45 11.2759ZM148.45 6.79646C147.302 6.79646 146.365 7.76186 146.365 8.91069C146.365 10.0595 147.302 11.0249 148.45 11.0249C149.599 11.0249 150.536 10.0595 150.536 8.91069C150.536 7.76186 149.599 6.79646 148.45 6.79646ZM149.078 10.1561L148.431 9.09412H147.997V10.1561H147.707V7.6074H148.537C148.972 7.6074 149.348 7.92598 149.348 8.36041C149.348 8.73692 149.097 8.97827 148.759 9.07481L149.416 10.1657H149.078V10.1561ZM148.508 7.88737H147.997V8.81415H148.508C148.817 8.81415 149.059 8.63073 149.059 8.35076C149.059 8.07079 148.827 7.88737 148.508 7.88737Z" fill="white"/>
<path d="M114.652 6.61304C114.574 6.61304 114.545 6.642 113.831 6.67096C113.097 6.69992 111.717 6.72889 108.908 6.72889H107.604H106.813H105.509C102.71 6.72889 101.319 6.69992 100.586 6.67096C99.881 6.642 99.852 6.61304 99.7651 6.61304C99.4369 6.61304 99.4369 6.83508 99.4369 7.45294V9.95334C99.4369 10.0885 99.4369 10.4167 99.7072 10.4167C100.006 10.4167 100.064 10.3105 100.547 9.30652C100.866 8.61143 101.513 7.59775 105.21 7.56879C105.596 7.57844 105.76 7.66533 105.76 8.27354V20.9204C105.76 21.9823 105.76 22.716 104.399 22.7932C103.829 22.8512 103.453 22.8705 103.453 23.2566C103.453 23.6621 103.801 23.6621 104.023 23.6621C104.544 23.6621 106.745 23.5559 107.199 23.5559C108.097 23.5559 109.516 23.6621 110.404 23.6621C110.626 23.6621 110.973 23.6621 110.973 23.2566C110.973 22.8512 110.597 22.8222 110.018 22.7932C108.657 22.716 108.657 21.9727 108.657 20.8624V8.46662C108.657 7.76187 108.743 7.6074 109.535 7.57844C112.924 7.66533 113.532 8.64039 113.841 9.30652C114.333 10.3105 114.381 10.4167 114.681 10.4167C114.951 10.4167 114.951 10.0885 114.951 9.95334V7.45294C114.98 6.82543 114.98 6.61304 114.652 6.61304Z" fill="white"/>
<path d="M85.2646 19.3371C85.0233 19.3371 84.9653 19.4433 84.473 20.399C83.2759 22.716 81.5961 22.716 80.399 22.716C78.111 22.716 77.5414 22.4167 77.5414 20.4859V15.8133C77.5414 15.0024 77.7538 15.0024 79.0571 15.0024C81.2871 15.0024 82.0498 15.0314 82.6194 17.1263C82.7546 17.6476 82.9187 17.7828 83.1311 17.7828C83.4593 17.7828 83.4593 17.4063 83.4593 17.2421C83.4593 17.0201 83.3821 16.074 83.3821 15.8809C83.3821 15.2824 83.5752 12.4827 83.5752 12.1062C83.5752 11.8069 83.44 11.72 83.2759 11.72C83.1407 11.72 83.0056 11.7779 82.8704 12.1255C82.3781 13.5639 82.1367 14.1625 79.115 14.1625C77.5414 14.1625 77.5414 13.9404 77.5414 13.0716V9.13272C77.5414 7.7715 77.6476 7.58808 79.0088 7.58808C82.8704 7.58808 83.5269 8.62106 83.8455 9.32581C84.3378 10.3298 84.3861 10.436 84.6854 10.436C84.9557 10.436 84.9557 10.1078 84.9557 9.97263V7.47223C84.9557 6.84471 84.9557 6.63232 84.6275 6.63232C84.5502 6.63232 84.5213 6.66129 83.8165 6.69025C83.0828 6.71921 81.6926 6.74817 78.8929 6.74817H77.5896C75.2727 6.74817 74.1045 6.71921 73.506 6.69025C72.9074 6.66129 72.8785 6.63232 72.8205 6.63232C72.6275 6.63232 72.2799 6.63232 72.2799 7.01849C72.2799 7.42396 72.6661 7.45292 73.255 7.48188C74.6162 7.56877 74.6162 8.29282 74.6162 9.41269V20.8914C74.6162 22.0016 74.6162 22.745 73.255 22.8222C72.6854 22.8801 72.2799 22.8994 72.2799 23.2856C72.2799 23.6911 72.6371 23.6911 72.8495 23.6911C73.0426 23.6911 73.255 23.6621 73.6894 23.6331C74.1238 23.6042 74.7996 23.5752 75.9195 23.5752H76.2477C76.4118 23.5752 77.6862 23.6042 79.2405 23.6331C80.8141 23.6621 82.7159 23.6911 84.1061 23.6911C84.8978 23.6911 85.1681 23.3918 85.197 22.8705C85.2839 21.8664 85.5832 20.119 85.5832 19.7715C85.5832 19.5881 85.506 19.3371 85.2646 19.3371Z" fill="white"/>
<path d="M129.644 19.3371C129.403 19.3371 129.345 19.4433 128.853 20.399C127.656 22.716 125.976 22.716 124.779 22.716C122.491 22.716 121.921 22.4167 121.921 20.4859V15.8133C121.921 15.0024 122.134 15.0024 123.437 15.0024C125.667 15.0024 126.43 15.0314 126.999 17.1263C127.134 17.6476 127.298 17.7828 127.511 17.7828C127.839 17.7828 127.839 17.4063 127.839 17.2421C127.839 17.0201 127.762 16.074 127.762 15.8809C127.762 15.2824 127.955 12.4827 127.955 12.1062C127.955 11.8069 127.82 11.72 127.656 11.72C127.52 11.72 127.385 11.7779 127.25 12.1255C126.758 13.5639 126.516 14.1625 123.495 14.1625C121.921 14.1625 121.921 13.9404 121.921 13.0716V9.13272C121.921 7.7715 122.027 7.58808 123.389 7.58808C127.25 7.58808 127.907 8.62106 128.225 9.32581C128.718 10.3298 128.766 10.436 129.065 10.436C129.335 10.436 129.335 10.1078 129.335 9.97263V7.47223C129.335 6.84471 129.335 6.63232 129.007 6.63232C128.93 6.63232 128.901 6.66129 128.196 6.69025C127.463 6.71921 126.072 6.74817 123.273 6.74817H121.969C119.652 6.74817 118.484 6.71921 117.886 6.69025C117.287 6.66129 117.258 6.63232 117.2 6.63232C117.007 6.63232 116.66 6.63232 116.66 7.01849C116.66 7.42396 117.046 7.45292 117.635 7.48188C118.996 7.56877 118.996 8.29282 118.996 9.41269V20.8914C118.996 22.0016 118.996 22.745 117.635 22.8222C117.065 22.8801 116.66 22.8994 116.66 23.2856C116.66 23.6911 117.017 23.6911 117.229 23.6911C117.422 23.6911 117.635 23.6621 118.069 23.6331C118.504 23.6042 119.179 23.5752 120.299 23.5752H120.627C120.792 23.5752 122.066 23.6042 123.62 23.6331C125.194 23.6621 127.096 23.6911 128.486 23.6911C129.278 23.6911 129.548 23.3918 129.577 22.8705C129.664 21.8664 129.963 20.119 129.963 19.7715C129.963 19.5881 129.886 19.3371 129.644 19.3371Z" fill="white"/>
<path d="M93.8279 13.1778C91.6075 12.2607 89.9953 11.5656 89.9953 9.59615C89.9953 8.5149 90.8641 6.94129 93.017 6.97025C95.3243 6.98956 95.8167 8.52455 96.1546 9.59615C96.4345 10.4554 96.5407 10.6195 96.8207 10.6195C97.2069 10.6195 97.2069 10.3974 97.2069 9.78924C97.2069 7.34676 97.2069 7.09575 96.869 6.90267C96.4828 6.70959 94.8416 6.2655 93.239 6.2655C89.7153 6.2655 87.7748 8.48594 87.7748 11.0346C87.7748 13.9791 89.9663 15.0604 92.2157 16.0547C94.2141 16.9719 96.0966 18.0242 96.0966 20.1867C96.0966 22.4361 93.9052 23.1987 92.7467 23.1987C90.7772 23.1987 88.8754 21.5382 88.3444 19.1151C88.2865 18.8641 88.2575 18.5841 88.0065 18.5841C87.6686 18.5841 87.659 18.9703 87.659 19.0861C87.6397 20.0901 87.7652 21.2776 87.8038 21.6348C87.881 22.3202 87.9872 22.8801 88.2962 23.1118C88.7982 23.469 90.169 24 92.3316 24C96.0194 24 98.2978 21.4224 98.2978 18.3427C98.2978 15.2052 95.3822 13.8439 93.8279 13.1778Z" fill="white"/>
<path d="M28.4602 6.27515C23.1312 6.27515 19.1151 10.0982 19.1151 15.099C19.1151 20.399 23.5753 24 28.383 24C33.0556 24 37.622 20.2253 37.622 14.848C37.6123 10.0788 33.6059 6.27515 28.4602 6.27515ZM28.5954 23.2373C24.9365 23.2373 22.3203 18.9895 22.3203 14.5197C22.3203 10.6002 24.7724 7.03782 28.132 7.03782C32.4474 7.03782 34.3878 11.6718 34.3878 14.9542C34.3878 18.9606 32.3991 23.2373 28.5954 23.2373Z" fill="white"/>
<path d="M17.3773 0C17.3387 0 17.3001 0.0386162 16.2381 0.0772324C15.2148 0.115849 13.1585 0.154465 9.07482 0.154465H8.21561C4.32502 0.154465 2.90587 0.115849 1.88254 0.0772324C0.897829 0.0386162 0.859213 0 0.78198 0C0.511667 0 0 -2.87713e-07 0 0.550281C0 1.10056 0.588899 1.13918 1.40949 1.21641C3.37892 1.33226 3.37892 2.39421 3.37892 4.00644V14.6066V20.2832C3.37892 21.5865 3.37892 22.494 1.69912 22.5905C0.994369 22.6581 0.530975 22.687 0.530975 23.1601C0.530975 23.6621 0.965407 23.6621 1.23572 23.6621C1.87289 23.6621 4.64361 23.5269 5.2132 23.5269C6.32341 23.5269 8.11907 23.6621 9.21963 23.6621C9.48994 23.6621 9.92438 23.6621 9.92438 23.1601C9.92438 22.6581 9.46098 22.6195 8.75623 22.5905C7.08608 22.494 7.08608 21.5865 7.08608 20.2156V14.6066V14.1818C7.08608 13.0716 7.08608 12.6275 7.72325 12.4537C8.13837 12.3379 9.95334 12.3379 11.1118 12.3379C12.0965 12.3379 14.6066 12.3379 15.1569 14.4618C15.2341 14.6549 15.4948 15.6782 15.5913 15.9582C15.6589 16.1512 15.8134 16.605 16.2188 16.5857C16.6919 16.5664 16.6919 16.1126 16.6919 15.8423L16.5374 13.9984C16.4602 13.0909 16.4602 12.4248 16.4602 12.0772C16.4602 11.4883 16.576 8.81416 16.576 8.26388C16.576 7.86806 16.4602 7.61705 16.103 7.59775C15.7554 7.57844 15.5527 7.91633 15.4755 8.22526C14.9735 10.2623 14.4135 11.1311 11.2277 11.1311C10.6388 11.1311 8.3025 11.1311 7.7136 11.0539C7.20193 10.9767 7.08608 10.9381 7.08608 8.81416V3.321C7.08608 1.47707 7.75221 1.39984 9.09413 1.39984C15.2052 1.39984 15.7168 2.23974 16.8946 4.85599C17.0394 5.18423 17.1939 5.63797 17.6283 5.63797C18.0628 5.63797 18.0627 5.01046 18.0627 4.89461V0.733709C18.0434 0.193081 18.0048 0 17.3773 0Z" fill="white"/>
<path d="M53.4931 22.8415C52.7305 22.7257 52.3539 22.0499 51.8133 21.1038L49.1778 16.4312C48.5502 15.292 48.222 15.1279 47.8745 14.9059C48.8013 14.7128 51.6009 14.066 51.6009 10.8801C51.6009 9.92438 51.1955 6.61304 46.3781 6.61304C45.5575 6.61304 41.9469 6.71923 41.2132 6.71923C40.8849 6.71923 39.5527 6.61304 39.2823 6.61304C38.3845 6.61304 38.2783 6.61304 38.2783 6.9992C38.2783 7.37571 38.6645 7.40467 39.2534 7.43363C40.5856 7.51087 40.5856 8.25423 40.5856 9.36445V20.8914C40.5856 22.0306 40.5856 22.745 39.2534 22.8512C38.6838 22.8801 38.2783 22.9091 38.2783 23.2856C38.2783 23.6911 38.6355 23.6621 38.8479 23.6621C39.3403 23.6621 41.5414 23.5559 42.0048 23.5559C42.111 23.5559 44.7562 23.6621 45.2679 23.6621C45.4802 23.6621 45.8375 23.6911 45.8375 23.3049C45.8375 22.8994 45.4513 22.8705 44.8624 22.8415C43.5012 22.7643 43.5012 22.0209 43.5012 20.8817V15.9871C43.5012 15.5237 43.5591 15.3596 44.0225 15.3596C45.2486 15.3596 45.3837 15.4658 45.9823 16.634L49.2743 22.8319C49.5736 23.4015 49.6798 23.6525 50.1721 23.6525C50.4135 23.6525 53.4062 23.6525 53.7538 23.6525C53.9469 23.6525 54.2172 23.6042 54.2172 23.3242C54.1882 23.0346 54.0627 22.9284 53.4931 22.8415ZM44.8431 14.6645C43.4819 14.6645 43.4819 14.6066 43.4819 13.6605V9.09413C43.4819 8.03219 43.5108 7.38536 44.7562 7.38536C48.1255 7.38536 48.5116 10.2912 48.5116 11.2759C48.5116 14.6645 45.8278 14.6645 44.8431 14.6645Z" fill="white"/>
<path d="M70.5518 22.8415C69.7892 22.7257 69.4127 22.0499 68.872 21.1038L66.2365 16.4312C65.609 15.292 65.2807 15.1279 64.9332 14.9059C65.86 14.7128 68.6596 14.066 68.6596 10.8801C68.6596 9.92438 68.2542 6.61304 63.4368 6.61304C62.6162 6.61304 59.0056 6.71923 58.2719 6.71923C57.9436 6.71923 56.6114 6.61304 56.3411 6.61304C55.4432 6.61304 55.337 6.61304 55.337 6.9992C55.337 7.37571 55.7232 7.40467 56.3121 7.43363C57.6444 7.51087 57.6444 8.25423 57.6444 9.36445V20.8914C57.6444 22.0306 57.6444 22.745 56.3121 22.8512C55.7425 22.8801 55.337 22.9091 55.337 23.2856C55.337 23.6911 55.6942 23.6621 55.9066 23.6621C56.399 23.6621 58.6001 23.5559 59.0635 23.5559C59.1697 23.5559 61.8149 23.6621 62.3266 23.6621C62.539 23.6621 62.8962 23.6911 62.8962 23.3049C62.8962 22.8994 62.51 22.8705 61.9211 22.8415C60.5599 22.7643 60.5599 22.0209 60.5599 20.8817V15.9871C60.5599 15.5237 60.6178 15.3596 61.0812 15.3596C62.3073 15.3596 62.4424 15.4658 63.041 16.634L66.333 22.8319C66.6323 23.4015 66.7385 23.6525 67.2308 23.6525C67.4722 23.6525 70.465 23.6525 70.8125 23.6525C71.0056 23.6525 71.2759 23.6042 71.2759 23.3242C71.2469 23.0346 71.1214 22.9284 70.5518 22.8415ZM61.9018 14.6645C60.5406 14.6645 60.5406 14.6066 60.5406 13.6605V9.09413C60.5406 8.03219 60.5695 7.38536 61.8149 7.38536C65.1842 7.38536 65.5703 10.2912 65.5703 11.2759C65.5703 14.6645 62.8865 14.6645 61.9018 14.6645Z" fill="white"/>
<path d="M146.722 22.8415C145.96 22.7257 145.583 22.0499 145.043 21.1038L142.407 16.4312C141.779 15.292 141.451 15.1279 141.104 14.9059C142.03 14.7128 144.83 14.066 144.83 10.8801C144.83 9.92438 144.425 6.61304 139.607 6.61304C138.787 6.61304 135.176 6.71923 134.442 6.71923C134.114 6.71923 132.782 6.61304 132.512 6.61304C131.614 6.61304 131.508 6.61304 131.508 6.9992C131.508 7.37571 131.894 7.40467 132.483 7.43363C133.815 7.51087 133.815 8.25423 133.815 9.36445V20.8914C133.815 22.0306 133.815 22.745 132.483 22.8512C131.913 22.8801 131.508 22.9091 131.508 23.2856C131.508 23.6911 131.865 23.6621 132.077 23.6621C132.57 23.6621 134.771 23.5559 135.234 23.5559C135.34 23.5559 137.985 23.6621 138.497 23.6621C138.71 23.6621 139.067 23.6911 139.067 23.3049C139.067 22.8994 138.681 22.8705 138.092 22.8415C136.73 22.7643 136.73 22.0209 136.73 20.8817V15.9871C136.73 15.5237 136.788 15.3596 137.252 15.3596C138.478 15.3596 138.613 15.4658 139.212 16.634L142.504 22.8319C142.803 23.4015 142.909 23.6525 143.401 23.6525C143.643 23.6525 146.635 23.6525 146.983 23.6525C147.176 23.6525 147.446 23.6042 147.446 23.3242C147.427 23.0346 147.292 22.9284 146.722 22.8415ZM138.082 14.6645C136.721 14.6645 136.721 14.6066 136.721 13.6605V9.09413C136.721 8.03219 136.75 7.38536 137.995 7.38536C141.364 7.38536 141.751 10.2912 141.751 11.2759C141.751 14.6645 139.057 14.6645 138.082 14.6645Z" fill="white"/>
</svg>
