<svg width="94" height="123" viewBox="0 0 94 123" fill="none" xmlns="http://www.w3.org/2000/svg">
<g clip-path="url(#clip0_1032_2210)">
<path d="M8.11718 90.6018L47.7014 110.745L85.7824 90.6018V11.8342H8.11718V90.6018Z" fill="white"/>
<path d="M86.5838 12.1345L7.31516 92.0045L48.4026 112.348L86.5838 92.8062V12.1345Z" fill="#F2F3F2"/>
<path d="M5.51173 38.0898V92.3052L6.91471 93.0066L46.4989 113.15L47.7015 113.751L48.904 113.15L87.0853 93.0066L88.4883 92.3052V9.22839H5.51173V38.0898ZM8.11727 90.802V11.8339H85.8827V90.802L47.7015 110.945L8.11727 90.802Z" fill="#DCDEDC"/>
<path d="M47 13.1367C47.4008 13.1367 47.8017 13.1367 48.2026 13.2369L47 15.5418C45.1962 15.4416 43.5927 16.8446 43.4925 18.6484C43.3923 20.4523 44.7953 22.0557 46.5991 22.1559H47C47.8017 22.1559 48.6034 21.8553 49.2047 21.3542L50.5075 23.5589C49.5053 24.2604 48.3028 24.6612 47 24.6612C43.7932 24.7614 41.0874 22.3563 40.9872 19.1495C40.887 15.9427 43.2921 13.2369 46.4989 13.1367H47ZM51.1087 18.0472L52.6119 20.5525L51.1087 22.9576L49.7057 20.5525H46.7996L48.3028 18.0472H51.1087ZM48.7036 17.1452C48.7036 16.7444 48.8038 16.3435 49.0043 16.0429C49.2047 15.7423 49.6055 15.4416 49.9062 15.2412L50.1066 15.141C50.5075 14.9405 50.6077 14.8403 50.6077 14.6399C50.6077 14.4395 50.307 14.2391 50.1066 14.2391C49.7058 14.2391 49.4051 14.4395 49.2047 14.8403L48.7036 14.3393C48.8038 14.1388 49.0043 13.9384 49.2047 13.738C49.5053 13.5376 49.806 13.5376 50.1066 13.5376C50.4072 13.5376 50.8081 13.6378 51.0085 13.8382C51.209 14.0386 51.4094 14.3393 51.4094 14.6399C51.4094 15.141 51.1087 15.5418 50.5075 15.7423L50.2068 15.9427C49.9062 16.1431 49.7058 16.2433 49.6055 16.544H51.4094V17.2455L48.7036 17.1452ZM47 29.6719L56.5203 24.2604V9.22839H37.3795V24.1602L47 29.6719Z" fill="#FF492C"/>
<path d="M23.3496 49.714V40.8953C23.3496 40.795 23.4498 40.6948 23.5501 40.6948H25.855C25.9552 40.6948 26.0554 40.795 26.0554 40.8953V49.714C26.0554 51.0168 26.9573 52.0189 28.3603 52.0189C29.7633 52.0189 30.6652 51.117 30.6652 49.714V40.8953C30.6652 40.795 30.7654 40.6948 30.8656 40.6948H33.1705C33.2707 40.6948 33.371 40.795 33.371 40.8953V49.714C33.371 52.52 31.3667 54.3238 28.3603 54.3238C25.3539 54.3238 23.3496 52.4198 23.3496 49.714ZM35.0746 51.4176V51.2172C35.0746 51.117 35.1748 51.0168 35.275 51.0168H37.3795C37.4797 51.0168 37.5799 51.117 37.5799 51.2172C37.5799 51.8185 38.2814 52.2193 39.2835 52.2193C40.1855 52.2193 40.7867 51.8185 40.7867 51.3174C40.7867 50.5157 39.2835 50.5157 37.8805 50.0147C36.5778 49.6138 35.1748 48.9123 35.1748 47.2087C35.1748 45.3046 36.7782 44.1021 39.2835 44.1021C41.7889 44.1021 43.3923 45.4048 43.3923 47.2087C43.3923 47.3089 43.2921 47.4091 43.1918 47.4091H41.0874C40.9872 47.4091 40.8869 47.3089 40.8869 47.2087C40.8869 46.6074 40.2857 46.2066 39.2835 46.2066C38.4818 46.2066 37.8805 46.5072 37.8805 47.1085C37.8805 47.9102 39.1833 47.9102 40.6865 48.4112C42.1897 48.8121 43.6929 49.5136 43.6929 51.3174C43.6929 53.2215 41.9893 54.3238 39.484 54.3238C36.7782 54.3238 35.0746 53.1213 35.0746 51.4176ZM54.0149 49.8142C54.0149 50.0147 53.9147 50.0147 53.7142 50.0147H47.7014C47.6012 50.0147 47.6012 50.0147 47.6012 50.1149C47.6012 50.4155 47.7014 50.6159 47.8017 50.9166C48.1023 51.6181 48.7036 52.0189 49.8059 52.0189C50.7078 52.0189 51.3091 51.6181 51.8102 51.0168C51.9104 50.9166 52.0106 50.8164 52.1108 51.0168L53.5138 52.4198C53.614 52.52 53.614 52.6202 53.5138 52.7204C52.6119 53.8228 51.2089 54.424 49.6055 54.424C47.4008 54.424 45.8976 53.3217 45.1961 51.5179C44.8955 50.8164 44.7953 50.1149 44.7953 49.1127C44.7953 48.4112 44.8955 47.7098 45.0959 47.1085C45.6972 45.3046 47.2004 44.1021 49.3049 44.1021C51.9104 44.1021 53.5138 45.8057 53.8144 48.2108C54.0149 48.7119 54.0149 49.213 54.0149 49.8142ZM47.8017 47.5093C47.7014 47.7098 47.7014 47.9102 47.7014 48.1106C47.7014 48.2108 47.7014 48.2108 47.8017 48.2108H51.1087C51.2089 48.2108 51.2089 48.2108 51.2089 48.1106C51.2089 47.9102 51.1087 47.7098 51.1087 47.6095C50.9083 46.8078 50.307 46.407 49.4051 46.407C48.6034 46.407 48.1023 46.8078 47.8017 47.5093ZM61.8315 44.4027C61.9317 44.5029 61.9317 44.6031 61.9317 44.7034L61.5309 46.908C61.5309 47.1085 61.4307 47.1085 61.2302 47.0083C60.9296 46.908 60.5287 46.908 60.1279 46.908C59.226 47.0083 58.4243 47.6095 58.4243 48.6117V53.923C58.4243 54.0232 58.324 54.1234 58.2238 54.1234H55.9189C55.8187 54.1234 55.7185 54.0232 55.7185 53.923V44.5029C55.7185 44.4027 55.8187 44.3025 55.9189 44.3025H58.2238C58.324 44.3025 58.4243 44.4027 58.4243 44.5029V45.2044C58.4243 45.3046 58.5245 45.3046 58.5245 45.3046C59.0255 44.6031 59.727 44.1021 60.6289 44.1021C61.2302 44.1021 61.5309 44.2023 61.8315 44.4027ZM62.6332 51.4176V51.2172C62.6332 51.117 62.7334 51.0168 62.8336 51.0168H64.9381C65.0383 51.0168 65.1385 51.117 65.1385 51.2172C65.1385 51.8185 65.84 52.2193 66.8422 52.2193C67.7441 52.2193 68.3454 51.8185 68.3454 51.3174C68.3454 50.5157 66.8422 50.5157 65.4392 50.0147C64.1364 49.6138 62.7334 48.9123 62.7334 47.2087C62.7334 45.3046 64.3368 44.1021 66.8422 44.1021C69.3475 44.1021 70.9509 45.4048 70.9509 47.2087C70.9509 47.3089 70.8507 47.4091 70.7505 47.4091H68.646C68.5458 47.4091 68.4456 47.3089 68.4456 47.2087C68.4456 46.6074 67.8443 46.2066 66.8422 46.2066C66.0405 46.2066 65.4392 46.5072 65.4392 47.1085C65.4392 47.9102 66.742 47.9102 68.2452 48.4112C69.7484 48.8121 71.2515 49.5136 71.2515 51.3174C71.2515 53.2215 69.5479 54.3238 67.0426 54.3238C64.3368 54.3238 62.6332 53.1213 62.6332 51.4176ZM14.6311 70.1575V57.1298C14.6311 57.0296 14.7313 56.9294 14.8315 56.9294H17.1364C17.2366 56.9294 17.3368 57.0296 17.3368 57.1298V67.9528C17.3368 68.053 17.3368 68.053 17.437 68.053H23.7505C23.8507 68.053 23.9509 68.1532 23.9509 68.2535V70.1575C23.9509 70.2577 23.8507 70.3579 23.7505 70.3579H14.8315C14.7313 70.3579 14.6311 70.2577 14.6311 70.1575ZM25.5543 67.3515C25.3539 66.7503 25.2537 66.0488 25.2537 65.3473C25.2537 64.6458 25.3539 63.8441 25.5543 63.343C26.1556 61.439 27.759 60.3366 29.9637 60.3366C32.0682 60.3366 33.6716 61.5392 34.2729 63.343C34.4733 63.9443 34.5735 64.6458 34.5735 65.3473C34.5735 66.0488 34.4733 66.7503 34.2729 67.2513C33.6716 69.2556 32.0682 70.4582 29.9637 70.4582C27.759 70.5584 26.0554 69.3558 25.5543 67.3515ZM31.6673 66.7503C31.7675 66.3494 31.8678 65.8483 31.8678 65.4475C31.8678 64.9464 31.7675 64.4454 31.6673 64.0445C31.3667 63.1426 30.7654 62.6415 29.9637 62.6415C29.0618 62.6415 28.4605 63.1426 28.2601 64.0445C28.0597 64.3451 28.0597 64.8462 28.0597 65.4475C28.0597 65.9486 28.0597 66.4496 28.1599 66.7503C28.4605 67.6522 29.0618 68.1533 29.9637 68.1533C30.7654 68.2535 31.3667 67.6522 31.6673 66.7503ZM38.2814 70.1575L35.1748 60.6373C35.0746 60.4368 35.1748 60.3366 35.3752 60.3366H37.8805C37.9808 60.3366 38.081 60.4368 38.1812 60.537L39.7846 66.3494C39.7846 66.4496 39.8848 66.4496 39.8848 66.3494L41.4882 60.537C41.4882 60.4368 41.5884 60.3366 41.7889 60.3366H44.2942C44.4946 60.3366 44.5948 60.4368 44.4946 60.6373L41.388 70.0573C41.388 70.1575 41.2878 70.2577 41.0874 70.2577H38.582C38.3816 70.3579 38.2814 70.3579 38.2814 70.1575ZM54.1151 66.0488C54.1151 66.2492 54.0149 66.2492 53.8144 66.2492H47.8017C47.7014 66.2492 47.7014 66.2492 47.7014 66.3494C47.7014 66.65 47.8017 66.8505 47.9019 67.1511C48.2025 67.8526 48.8038 68.2535 49.9061 68.2535C50.808 68.2535 51.4093 67.8526 51.9104 67.2513C52.0106 67.1511 52.1108 67.0509 52.211 67.2513L53.614 68.6543C53.7142 68.7545 53.7142 68.8547 53.614 68.955C52.7121 70.0573 51.3091 70.6586 49.7057 70.6586C47.501 70.6586 45.9978 69.5562 45.2963 67.7524C44.9957 67.0509 44.8955 66.3494 44.8955 65.3473C44.8955 64.6458 44.9957 63.9443 45.1961 63.343C45.7974 61.5392 47.3006 60.3366 49.4051 60.3366C52.0106 60.3366 53.614 62.0402 53.9147 64.4454C54.1151 64.9464 54.1151 65.4475 54.1151 66.0488ZM47.9019 63.7439C47.8017 63.9443 47.8017 64.1447 47.8017 64.3451C47.8017 64.4454 47.8017 64.4454 47.9019 64.4454H51.2089C51.3091 64.4454 51.3091 64.4454 51.3091 64.3451C51.3091 64.1447 51.2089 63.9443 51.2089 63.8441C51.0085 63.0424 50.4072 62.6415 49.5053 62.6415C48.6034 62.6415 48.1023 63.0424 47.9019 63.7439ZM59.727 65.9486V57.1298C59.727 57.0296 59.8272 56.9294 59.9275 56.9294H62.2324C62.3326 56.9294 62.4328 57.0296 62.4328 57.1298V65.9486C62.4328 67.2513 63.3347 68.2535 64.7377 68.2535C66.1407 68.2535 67.0426 67.3515 67.0426 65.9486V57.1298C67.0426 57.0296 67.1428 56.9294 67.243 56.9294H69.5479C69.6481 56.9294 69.7484 57.0296 69.7484 57.1298V65.9486C69.7484 68.7545 67.7441 70.5584 64.7377 70.5584C61.7313 70.5584 59.727 68.6543 59.727 65.9486ZM71.452 67.6522V67.4518C71.452 67.3515 71.5522 67.2513 71.6524 67.2513H73.7569C73.8571 67.2513 73.9573 67.3515 73.9573 67.4518C73.9573 68.053 74.6588 68.4539 75.6609 68.4539C76.5629 68.4539 77.1641 68.053 77.1641 67.552C77.1641 66.7503 75.6609 66.7503 74.2579 66.2492C72.9552 65.8483 71.5522 65.1469 71.5522 63.4432C71.5522 61.5392 73.1556 60.3366 75.6609 60.3366C78.1663 60.3366 79.7697 61.6394 79.7697 63.4432C79.7697 63.5434 79.6695 63.6437 79.5692 63.6437H77.4648C77.3646 63.6437 77.2643 63.5434 77.2643 63.4432C77.2643 62.8419 76.6631 62.4411 75.6609 62.4411C74.8592 62.4411 74.2579 62.7417 74.2579 63.343C74.2579 64.1447 75.5607 64.1447 77.0639 64.6458C78.5671 65.0466 80.0703 65.7481 80.0703 67.552C80.0703 69.456 78.3667 70.5584 75.8614 70.5584C73.1556 70.5584 71.452 69.3558 71.452 67.6522Z" fill="#252530"/>
<path d="M19.3414 81.8821H39.3841V82.6838H19.3414V81.8821ZM55.2177 81.8821H75.2604V82.6838H55.2177V81.8821Z" fill="#DCDEDC"/>
<path d="M42.4905 80.9802L45.5971 80.4792L47.2005 77.3726L48.7037 80.379L52.0107 80.9802L49.7058 83.2851L50.2069 86.5922L47.2005 85.1892L44.1941 86.5922L44.595 83.2851L42.4905 80.9802Z" fill="#DCDEDC"/>
</g>
<defs>
<clipPath id="clip0_1032_2210">
<rect width="94" height="122.06" fill="white" transform="translate(0 0.509766)"/>
</clipPath>
</defs>
</svg>
